<svg width="94" height="151" viewBox="0 0 94 151" fill="none" xmlns="http://www.w3.org/2000/svg">
<circle cx="47" cy="57" r="47" fill="#F9D05C"/>
<path d="M24.6154 30.2756H50.2244C57.7073 30.2756 63.8098 32.7821 68.5321 37.7949C73.2543 42.735 75.5791 49.2009 75.5064 57.1923C75.5064 65.1838 73.1816 71.6496 68.5321 76.5897C63.8825 81.5299 57.7799 84 50.2244 84H24.6154V82.5833L30.7179 81.6026V32.6731L24.6154 31.6923V30.2756ZM50.2244 32.0192H38.1282V82.3654H50.2244C55.2372 82.3654 59.2692 80.6218 62.3205 77.1346C65.4444 73.6474 67.0064 68.7073 67.0064 62.3141V51.9615C67.0064 45.5684 65.4444 40.6645 62.3205 37.25C59.2692 33.7628 55.2372 32.0192 50.2244 32.0192Z" fill="black"/>
</svg>
