<svg width="70" height="91" viewBox="0 0 70 91" fill="none" xmlns="http://www.w3.org/2000/svg">
<path d="M60.64 47.24C60.56 47.48 60.4 47.8 60.16 48.2C60 48.6 59.8 49.04 59.56 49.52C59.32 49.92 59.08 50.28 58.84 50.6C58.6 50.84 58.44 50.92 58.36 50.84C58.36 50.84 58.4 50.64 58.48 50.24C58.56 49.84 58.64 49.4 58.72 48.92C58.88 48.44 59 48 59.08 47.6C59.24 47.12 59.32 46.8 59.32 46.64C60.52 40.24 60.52 34.72 59.32 30.08C58.12 25.44 56.08 21.64 53.2 18.68C50.4 15.72 46.92 13.52 42.76 12.08C38.68 10.64 34.36 9.88 29.8 9.8C26.52 9.8 23.28 10.08 20.08 10.64C16.96 11.12 14.08 11.76 11.44 12.56C8.88 13.36 6.68 14.24 4.84 15.2C3.08 16.16 1.96 17.08 1.48 17.96C0.92 18.92 0.76 18.8 1 17.6C1.64 15.52 3.32 13.6 6.04 11.84C8.84 10.08 12.08 8.64 15.76 7.52C19.44 6.4 23.28 5.68 27.28 5.36C31.36 4.96 35.04 5.16 38.32 5.96C40.48 6.43999 42.64 7.12 44.8 8C46.96 8.88 49 9.96 50.92 11.24C52.92 12.44 54.72 13.92 56.32 15.68C58 17.36 59.4 19.32 60.52 21.56C62.68 25.88 63.72 30.36 63.64 35C63.64 39.56 62.64 43.64 60.64 47.24ZM68.44 46.4C66.92 50.88 64.88 54.92 62.32 58.52C59.84 62.12 57.16 65.36 54.28 68.24C51.4 71.04 48.44 73.48 45.4 75.56C42.36 77.64 39.52 79.4 36.88 80.84C36.08 81.24 35.4 81.56 34.84 81.8C34.28 82.04 34 82.08 34 81.92C33.84 81.84 34.04 81.6 34.6 81.2C35.24 80.72 35.88 80.24 36.52 79.76C41 76.16 45.32 72.36 49.48 68.36C53.72 64.36 57.52 59.8 60.88 54.68C62.56 52.04 63.84 49.16 64.72 46.04C65.6 42.84 66.04 39.56 66.04 36.2C66.04 32.84 65.56 29.52 64.6 26.24C63.72 22.96 62.32 19.92 60.4 17.12C57.84 13.44 54.72 10.52 51.04 8.35999C47.44 6.19999 43.56 4.71999 39.4 3.91999C35.24 3.04 30.96 2.76 26.56 3.08C22.16 3.4 17.92 4.16 13.84 5.36C13.2 5.51999 12.8 5.64 12.64 5.72C12.56 5.8 12.48 5.76 12.4 5.59999C12.32 5.44 12.44 5.28 12.76 5.11999C13.08 4.95999 13.36 4.8 13.6 4.64C15.36 3.68 17.64 2.8 20.44 2C23.24 1.2 26.4 0.719997 29.92 0.559994C33.44 0.399996 37.2 0.719997 41.2 1.52C45.2 2.24 49.24 3.68 53.32 5.84C57.72 8.24 61.12 11.28 63.52 14.96C66 18.64 67.72 22.44 68.68 26.36C69.64 30.2 70.04 33.96 69.88 37.64C69.72 41.24 69.24 44.16 68.44 46.4ZM16.24 87.56C15.84 86.92 15.32 85.92 14.68 84.56C14.12 83.12 13.68 81.44 13.36 79.52C13.2 78.56 13.08 77.48 13 76.28C13 75.08 13.04 73.96 13.12 72.92C13.2 71.8 13.32 70.88 13.48 70.16C13.64 69.44 13.88 69.08 14.2 69.08C14.28 69.08 14.36 69.32 14.44 69.8C14.6 70.2 14.72 70.68 14.8 71.24C14.96 71.8 15.04 72.36 15.04 72.92C15.12 73.4 15.16 73.76 15.16 74C15.32 76.08 15.56 78.16 15.88 80.24C16.28 82.32 16.84 84.32 17.56 86.24C20.36 82.8 23.56 79.32 27.16 75.8C30.76 72.28 34.28 68.72 37.72 65.12C41.16 61.44 44.28 57.68 47.08 53.84C49.96 50 52.04 46.04 53.32 41.96C54.2 39.16 54.36 36.24 53.8 33.2C53.32 30.16 52.32 27.4 50.8 24.92C49.28 22.52 47.12 20.52 44.32 18.92C41.52 17.32 38.44 16.2 35.08 15.56C33.72 15.32 32.36 15.12 31 14.96C29.72 14.8 28.36 14.72 26.92 14.72C27.16 15.92 27.28 17.24 27.28 18.68C27.36 20.04 27.36 21.4 27.28 22.76C27.2 24.12 27.08 25.44 26.92 26.72C26.76 27.92 26.56 29 26.32 29.96C25.2 34.28 23.88 38.64 22.36 43.04C20.84 47.36 19.24 51.52 17.56 55.52C17.4 55.76 17.16 56.16 16.84 56.72C16.6 57.2 16.4 57.44 16.24 57.44C16.08 57.44 16 57.12 16 56.48C16 55.84 16.04 55.4 16.12 55.16C16.2 54.2 16.36 53.04 16.6 51.68C16.84 50.24 17.08 48.8 17.32 47.36C17.64 45.92 17.96 44.52 18.28 43.16C18.6 41.72 18.92 40.52 19.24 39.56C19.4 39.08 19.68 37.92 20.08 36.08C20.56 34.24 21.04 32.12 21.52 29.72C22 27.32 22.44 24.8 22.84 22.16C23.32 19.44 23.64 16.96 23.8 14.72H22.36C22.2 17.84 21.76 21.04 21.04 24.32C20.32 27.6 19.44 30.92 18.4 34.28C17.44 37.56 16.4 40.88 15.28 44.24C14.24 47.6 13.32 50.96 12.52 54.32C12.36 55.04 12.12 56.28 11.8 58.04C11.56 59.8 11.36 61.8 11.2 64.04C11.04 66.2 10.96 68.52 10.96 71C10.96 73.4 11.12 75.72 11.44 77.96C11.84 80.12 12.4 82.08 13.12 83.84C13.84 85.6 14.88 86.84 16.24 87.56ZM56.08 45.44C54.32 49.6 51.88 53.6 48.76 57.44C45.72 61.28 42.4 65 38.8 68.6C35.2 72.12 31.48 75.48 27.64 78.68C23.88 81.88 20.44 84.92 17.32 87.8C16.68 88.36 15.84 88.44 14.8 88.04C13.84 87.56 13.12 87 12.64 86.36C10.96 84.12 9.72 81.6 8.92 78.8C8.12 76 7.64 73.12 7.48 70.16C7.32 67.12 7.4 64.08 7.72 61.04C8.12 57.92 8.68 54.92 9.4 52.04C11 45.4 12.8 39 14.8 32.84C16.88 26.6 18.4 20.68 19.36 15.08C15.04 15.56 11.16 16.56 7.72 18.08C4.36 19.52 2.12 21.28 1 23.36C1 23.52 0.96 23.6 0.88 23.6C0.72 23.6 0.72 23.28 0.88 22.64C1.52 20.4 3.08 18.48 5.56 16.88C8.04 15.2 11 13.92 14.44 13.04C17.88 12.08 21.56 11.52 25.48 11.36C29.48 11.2 33.36 11.44 37.12 12.08C41.2 12.8 44.72 14.36 47.68 16.76C50.72 19.08 53.08 21.84 54.76 25.04C56.52 28.16 57.52 31.52 57.76 35.12C58.08 38.72 57.52 42.16 56.08 45.44ZM30.28 18.2C31.24 20.28 31.6 23 31.36 26.36C31.2 29.72 30.76 33.24 30.04 36.92C29.32 40.52 28.48 44 27.52 47.36C26.64 50.72 25.96 53.44 25.48 55.52C24.52 59.36 23.36 63.2 22 67.04C20.64 70.88 19.52 74.24 18.64 77.12C18.24 78.24 17.96 78.8 17.8 78.8C17.56 78.8 17.44 78.6 17.44 78.2C17.44 77.72 17.44 77.28 17.44 76.88C17.68 70.96 18.52 65.12 19.96 59.36C21.48 53.6 23.12 47.76 24.88 41.84C25.92 38.24 26.92 34.48 27.88 30.56C28.84 26.64 29.4 22.52 29.56 18.2C29.56 17.64 29.64 17.32 29.8 17.24C29.88 17.24 29.96 17.36 30.04 17.6C30.12 17.84 30.2 18.04 30.28 18.2ZM44.56 68C44.64 68.08 44.48 68.4 44.08 68.96C43.68 69.52 43.16 70.16 42.52 70.88C41.96 71.52 41.36 72.2 40.72 72.92C40.16 73.56 39.76 74 39.52 74.24C37.84 75.92 36.12 77.64 34.36 79.4C32.68 81.08 30.92 82.52 29.08 83.72L18.28 90.56C18.12 90.64 17.88 90.72 17.56 90.8C17.32 90.88 17.12 90.88 16.96 90.8C16.8 90.72 16.72 90.6 16.72 90.44C16.8 90.28 16.88 90.12 16.96 89.96C17.04 89.8 17.16 89.64 17.32 89.48C18.68 88.52 20.2 87.32 21.88 85.88C23.64 84.44 25.44 82.96 27.28 81.44C28.64 80.4 30.24 79.08 32.08 77.48C34 75.88 35.84 74.36 37.6 72.92C39.44 71.48 41 70.28 42.28 69.32C43.64 68.28 44.4 67.84 44.56 68Z" fill="#F9D05C"/>
</svg>
